<svg width="14" height="15" viewBox="0 0 14 15" fill="none" xmlns="http://www.w3.org/2000/svg">
<path fill-rule="evenodd" clip-rule="evenodd" d="M9.26235 0.0146861C9.27328 -0.000891719 9.29472 -0.00467756 9.31031 0.00623019L10.3754 0.75201C10.391 0.762917 10.3947 0.784386 10.3839 0.799964L8.90143 2.91706C9.62212 3.1473 10.1131 3.39565 10.1131 3.39565C10.1131 3.39565 8.91298 5.46 6.87743 5.46C4.84188 5.46 3.39544 3.53598 3.39544 3.53598C3.39544 3.53598 3.90832 3.20867 4.66859 2.92795L3.04258 0.99018C3.03037 0.97561 3.03227 0.953892 3.04683 0.941669L4.04285 0.1059C4.05744 0.0936759 4.07915 0.0955758 4.09137 0.110144L6.15015 2.5637C6.32643 2.54376 6.50603 2.53262 6.68726 2.53262C6.94774 2.53262 7.2079 2.55242 7.46188 2.58603L9.26235 0.0146861ZM9.66507 5.55776C10.2083 5.16981 11.0302 4.15723 11.0302 4.15723C11.0302 4.15723 13.1298 5.82103 13.1298 9.3489C13.1298 12.8767 9.49998 15 9.49998 15C9.49998 15 7.76572 13.2486 7.33997 11.0284C6.91426 8.80821 7.96975 6.34296 7.96975 6.34296C7.96975 6.34296 9.12184 5.94572 9.66507 5.55776ZM3.81489 5.55776C3.27169 5.16981 2.44972 4.15723 2.44972 4.15723C2.44972 4.15723 0.350159 5.82103 0.350159 9.3489C0.350159 12.8767 3.97998 15 3.97998 15C3.97998 15 5.71424 13.2486 6.13999 11.0284C6.56571 8.80821 5.51021 6.34296 5.51021 6.34296C5.51021 6.34296 4.35812 5.94572 3.81489 5.55776Z" fill="white"/>
</svg>
