<svg width="16" height="15" viewBox="0 0 16 15" fill="none" xmlns="http://www.w3.org/2000/svg">
<path d="M7.37659 2.7904L3.65112 0.945312L3.7638 5.06914L7.28134 6.81123L7.37659 2.7904Z" fill="white"/>
<path d="M11.5126 5.11935L11.4653 0.96228L7.84204 2.93484L7.88675 6.85991L11.5126 5.11935Z" fill="white"/>
<path d="M11.5105 9.56585L15.0998 7.5128L11.5087 5.62402L7.91907 7.50956L11.5105 9.56585Z" fill="white"/>
<path d="M7.28076 7.5128L3.69144 9.56585L0.0999756 7.50956L3.68958 5.62402L7.28076 7.5128Z" fill="white"/>
<path d="M11.5667 14.0174L7.84119 12.1723L7.93644 8.15149L11.454 9.89361L11.5667 14.0174Z" fill="white"/>
<path d="M3.73242 9.89791L3.77978 14.055L7.403 12.0824L7.35828 8.15735L3.73242 9.89791Z" fill="white"/>
</svg>
