<svg width="15" height="15" viewBox="0 0 15 15" fill="none" xmlns="http://www.w3.org/2000/svg">
<path fill-rule="evenodd" clip-rule="evenodd" d="M12.9862 12.4579C12.9862 12.4579 11.0946 13.975 7.33034 13.3472C4.47447 12.8709 2.95128 9.72272 2.95128 8.03053C2.95128 4.01847 5.92072 3.10545 7.92827 3.10545C9.93579 3.10545 11.2454 5.0627 11.2454 6.5781C11.2454 8.09349 10.1736 9.41897 8.50566 9.41897C6.83772 9.41897 6.34372 8.24799 6.34372 7.17142C6.34372 6.09488 7.21473 5.71559 8.00908 5.71559C8.80343 5.71559 9.07542 6.39377 9.07542 6.97663C9.07542 7.55953 8.62318 7.76826 8.24597 7.76826C7.86876 7.76826 7.83146 7.57796 7.6871 7.37796C7.54271 7.17798 7.87122 6.42099 7.33034 6.42099C6.78946 6.42099 6.68864 7.29123 6.68864 7.29123C6.68864 7.29123 6.88583 8.97109 8.50566 8.94211C10.1255 8.9131 10.894 7.66082 10.6706 6.42099C10.4473 5.18113 9.24405 3.86365 7.13228 4.12987C5.0205 4.39609 4.15829 6.52984 4.53834 8.81008C4.91839 11.0904 7.65012 12.4116 9.79796 11.9362C11.9458 11.4609 14.0851 9.90594 14.0851 5.96353C14.0851 2.02109 10.6706 -0.348676 6.59925 0.0418739C2.52786 0.432422 0.000527218 3.9919 0.162299 8.26868C0.32407 12.5455 4.38223 14.8747 7.81382 14.9948C11.2454 15.1148 13.3491 13.1284 13.3491 13.1284C13.3491 13.1284 13.8222 12.7065 13.6367 12.377C13.4513 12.0476 12.9862 12.4579 12.9862 12.4579Z" fill="white"/>
</svg>
