<svg width="16" height="13" viewBox="0 0 16 13" fill="none" xmlns="http://www.w3.org/2000/svg">
<path fill-rule="evenodd" clip-rule="evenodd" d="M12.4416 6.18398C12.4408 6.18281 12.4404 6.18135 12.4407 6.17991L13.3956 0.611372C13.3961 0.608808 13.3983 0.606934 13.4009 0.606934H13.7031C13.7055 0.606934 13.7075 0.608445 13.7082 0.610667L15.8597 7.42284C15.8604 7.42494 15.8597 7.42728 15.8579 7.42866L14.2716 8.6672C14.2692 8.66904 14.2658 8.66857 14.264 8.66615L12.4416 6.18398ZM0.859985 9.87551C0.859985 9.87782 0.86147 9.87986 0.863666 9.8806L4.13373 10.9498C4.13531 10.9503 4.13706 10.9501 4.13844 10.9491L11.4478 5.90293C11.449 5.90208 11.4498 5.90076 11.45 5.8993L12.2339 0.639924C12.2344 0.636696 12.2319 0.633796 12.2286 0.633796H5.75433C5.75272 0.633796 5.75123 0.634504 5.75021 0.635729L0.861214 6.53356C0.86042 6.53452 0.859985 6.53572 0.859985 6.53698V9.87551ZM5.49638 11.2222L9.06886 12.3925C9.07047 12.393 9.07225 12.3927 9.07362 12.3917L13.3269 9.34083C13.3293 9.33917 13.3299 9.33592 13.3282 9.33352L11.7338 6.96085C11.7321 6.95836 11.7288 6.95772 11.7264 6.95941L5.49638 11.2222Z" fill="white"/>
</svg>
