<svg width="11" height="15" viewBox="0 0 11 15" fill="none" xmlns="http://www.w3.org/2000/svg">
<path fill-rule="evenodd" clip-rule="evenodd" d="M10.606 10.1523C10.606 12.8296 8.42742 15 5.73998 15C3.05255 15 0.873962 12.8296 0.873962 10.1523C0.873962 7.54836 5.47677 0.396929 5.7292 0.00667442C5.73497 -0.00222486 5.74502 -0.00222478 5.75076 0.00667451C6.0032 0.396929 10.606 7.54836 10.606 10.1523ZM4.92883 13.4458C2.45958 12.9056 2.88212 10.1703 2.88212 10.1703C2.88212 10.1703 3.55639 11.8215 5.19266 12.3563C6.82891 12.8912 8.8063 12.1067 8.8063 12.1067C8.8063 12.1067 7.39808 13.9861 4.92883 13.4458Z" fill="white"/>
</svg>
