<svg width="14" height="15" viewBox="0 0 14 15" fill="none" xmlns="http://www.w3.org/2000/svg">
<path fill-rule="evenodd" clip-rule="evenodd" d="M7.32763 7.46722C7.42929 7.40522 7.51554 7.27532 7.58509 7.13095C8.50048 7.50507 9.14375 8.38913 9.14375 9.42012C9.14375 10.7897 8.00849 11.9001 6.6081 11.9001C6.03324 11.9001 5.50305 11.7129 5.07775 11.3976C4.93824 11.3316 4.82346 11.2681 4.72953 11.2162C4.58384 11.1356 4.4883 11.0828 4.42847 11.0911C4.2536 11.1152 4.30437 11.2761 4.35052 11.4222C4.38183 11.5215 4.41104 11.614 4.36584 11.6522C4.31855 11.6921 4.16539 11.5461 3.98641 11.3754C3.74278 11.1432 3.45134 10.8653 3.3139 10.9487C3.20524 11.0147 3.31074 11.1938 3.43988 11.4129L3.44946 11.4292C3.50401 11.5218 3.56723 11.6162 3.62492 11.7022C3.74219 11.8772 3.83665 12.0181 3.78939 12.042C3.73226 12.0708 3.33424 11.8022 2.99882 11.4292C2.86935 11.2852 2.74396 11.1292 2.62742 10.9842V10.9842C2.37233 10.6668 2.15981 10.4024 2.04052 10.4337C1.897 10.4714 2.00557 10.7674 2.16509 11.0522C2.23968 11.1855 2.32742 11.3211 2.40339 11.4386V11.4386C2.52154 11.6212 2.61122 11.7598 2.5787 11.7769C2.53481 11.7998 2.14865 11.4233 1.88637 10.9487C1.73058 10.6669 1.59977 10.3554 1.49387 10.1032C1.37902 9.82975 1.29347 9.62604 1.23714 9.60554C1.04142 9.53432 1.04142 9.93337 1.11992 10.5093C1.13016 10.5845 1.14541 10.6633 1.16418 10.7435C1.92544 13.2066 4.26394 15 7.03071 15C10.415 15 13.1585 12.3168 13.1585 9.0068C13.1585 5.85645 10.6733 3.27384 7.51566 3.03205C7.51965 2.88364 7.59711 2.58935 7.59711 2.58935C7.59711 2.58935 8.15454 1.24064 8.18401 0.952438C8.18595 0.933311 8.18826 0.912524 8.19075 0.890388C8.22547 0.578991 8.29007 0 7.79196 0C7.52594 0 7.40225 0.19789 7.26078 0.424216V0.424219C7.20646 0.511104 7.14951 0.602183 7.0809 0.687861C6.58672 1.30499 5.75574 2.07565 5.28456 2.48622C4.28864 3.35402 3.31153 4.06723 2.74165 4.48318L2.74162 4.48321C2.48243 4.67238 2.3075 4.80009 2.25336 4.85285C1.84537 5.25059 0.382511 7.88924 0.382511 7.88924C0.382511 7.88924 -0.0905598 8.7358 0.0775896 8.90751C0.245739 9.07919 0.651231 9.03984 0.651231 9.03984C0.651231 9.03984 6.09872 7.79013 6.58642 7.69157C6.71773 7.66503 6.81043 7.64971 6.88159 7.63796C7.0748 7.60606 7.10949 7.60031 7.32763 7.46722ZM3.47606 5.86125C3.18365 6.13919 2.6987 6.80262 2.6987 6.80262C2.6987 6.80262 3.59999 6.85813 4.09637 6.38631C4.59277 5.91445 4.47904 5.11034 4.47904 5.11034C4.47904 5.11034 3.76845 5.58331 3.47606 5.86125Z" fill="white"/>
</svg>
